<?xml version="1.0" standalone="no"?>
<!DOCTYPE svg PUBLIC "-//W3C//DTD SVG 20010904//EN"
 "http://www.w3.org/TR/2001/REC-SVG-20010904/DTD/svg10.dtd">
<svg version="1.0" xmlns="http://www.w3.org/2000/svg"
 width="512.000000pt" height="512.000000pt" viewBox="0 0 512.000000 512.000000"
 preserveAspectRatio="xMidYMid meet">
<metadata>
Created by potrace 1.14, written by Peter Selinger 2001-2017
</metadata>
<g transform="translate(0.000000,512.000000) scale(0.100000,-0.100000)"
fill="#000000" stroke="none">
<path d="M3084 4723 c23 -28 3 -32 -28 -5 -15 13 -18 13 -8 1 10 -14 7 -16
-24 -17 -21 -1 -32 3 -29 8 4 6 11 7 17 4 7 -4 8 -2 4 5 -6 9 -11 9 -23 -1
-11 -8 -49 -13 -110 -14 -52 -1 -89 2 -83 6 8 5 7 9 -4 13 -9 4 -15 1 -13 -5
4 -17 -32 -17 -44 0 -8 14 -10 14 -6 1 4 -12 -5 -15 -49 -16 -30 0 -51 3 -49
7 3 5 1 12 -5 15 -6 4 -9 1 -8 -5 5 -19 -31 -20 -43 -2 -10 16 -10 15 -5 0 7
-22 -17 -24 -34 -3 -7 8 -17 15 -23 15 -6 0 -2 -7 9 -15 15 -11 16 -14 3 -15
-8 0 -21 6 -28 13 -8 6 -11 7 -8 1 4 -7 -10 -11 -42 -11 -36 1 -48 4 -44 14 3
7 0 13 -6 13 -6 0 -10 -5 -9 -11 5 -20 -53 -22 -68 -2 -13 17 -14 17 -7 -2 6
-18 5 -19 -12 -5 -11 9 -16 10 -11 3 4 -8 2 -13 -6 -13 -8 0 -20 6 -27 13 -11
10 -13 10 -7 0 10 -18 -19 -16 -34 2 -7 8 -17 15 -23 15 -6 0 -2 -7 9 -15 15
-11 16 -14 4 -15 -9 0 -22 6 -29 13 -8 6 -11 7 -8 1 4 -7 -30 -10 -109 -10
-90 1 -117 4 -125 16 -10 13 -10 13 -6 -1 4 -13 -4 -16 -50 -16 -30 0 -49 3
-43 7 8 5 7 9 -4 13 -9 4 -15 1 -13 -5 4 -17 -32 -17 -44 0 -8 14 -10 14 -6 1
4 -12 -5 -15 -49 -16 -30 0 -51 3 -49 7 3 5 1 12 -5 15 -6 4 -9 1 -8 -5 5 -19
-31 -20 -43 -2 -10 16 -10 15 -5 0 6 -21 -4 -23 -23 -5 -11 10 -13 10 -7 0 5
-9 0 -13 -15 -13 -19 0 -20 2 -8 18 13 15 12 16 -4 3 -10 -8 -34 -16 -53 -18
-27 -3 -34 0 -35 14 0 15 -2 15 -7 3 -8 -19 -26 -20 -44 -2 -6 6 -16 12 -22
12 -5 0 -1 -7 10 -15 15 -11 16 -14 3 -15 -8 0 -21 6 -28 13 -8 6 -11 7 -8 1
4 -7 -36 -10 -123 -10 -111 0 -127 2 -123 15 4 13 3 13 -6 0 -9 -14 -28 -16
-111 -15 -55 1 -100 -2 -100 -6 0 -4 -9 -5 -20 -3 -11 2 -22 -1 -25 -6 -4 -5
-11 -6 -17 -3 -6 4 -14 1 -18 -5 -4 -7 -17 -13 -28 -14 -12 -1 -22 -4 -22 -8
0 -4 -11 -6 -25 -5 -15 2 -22 -1 -18 -7 4 -6 0 -8 -10 -4 -12 4 -14 2 -10 -10
4 -11 2 -14 -5 -9 -7 4 -12 2 -12 -3 0 -6 -5 -11 -10 -11 -10 0 -21 -8 -54
-37 -8 -7 -16 -9 -20 -6 -3 4 -6 -1 -6 -11 0 -13 -6 -16 -22 -12 -13 3 -17 3
-10 0 21 -10 13 -26 -10 -20 -13 3 -17 3 -10 0 17 -8 15 -24 -4 -24 -8 0 -12
-4 -9 -10 3 -5 1 -10 -5 -10 -6 0 -8 -5 -4 -12 5 -8 0 -9 -14 -6 -12 4 -25 1
-29 -4 -3 -6 -1 -8 5 -4 6 3 13 2 17 -4 3 -5 1 -10 -5 -10 -6 0 -9 -4 -6 -8 3
-5 -6 -20 -19 -34 -13 -14 -21 -28 -19 -31 3 -3 -1 -16 -10 -29 -8 -12 -15
-26 -16 -30 0 -5 -1 -10 -1 -13 -1 -3 -3 -9 -4 -15 -1 -5 -3 -22 -4 -36 -1
-20 -4 -24 -14 -16 -10 8 -13 6 -13 -8 0 -10 3 -17 6 -15 3 2 5 -32 5 -75 0
-43 -3 -76 -7 -74 -4 3 -16 0 -25 -5 -10 -6 -13 -11 -7 -11 6 0 11 -15 11 -32
-1 -26 3 -33 17 -32 16 2 16 1 -1 -19 -17 -19 -17 -20 0 -14 26 10 20 0 -10
-18 l-28 -15 30 5 c27 4 28 3 13 -9 -10 -7 -18 -19 -18 -26 0 -10 4 -9 18 1
15 12 16 12 5 -2 -9 -11 -9 -19 -2 -26 8 -8 8 -13 0 -17 -6 -4 -11 -12 -11
-17 0 -6 4 -8 8 -5 4 2 8 -3 8 -13 0 -10 -6 -18 -12 -18 -7 0 -10 6 -7 13 6
17 -10 25 -27 12 -12 -8 -12 -9 3 -4 9 3 17 1 17 -4 0 -6 -6 -10 -12 -10 -8 0
-9 -3 -3 -8 6 -4 11 -20 11 -37 3 -44 2 -43 22 -48 16 -4 16 -5 0 -6 -10 0
-18 -6 -18 -12 0 -6 7 -8 16 -5 9 3 12 2 9 -5 -4 -6 -13 -8 -21 -5 -7 3 -16 0
-20 -6 -4 -6 -3 -8 3 -5 6 4 11 -4 11 -18 0 -14 -3 -23 -7 -21 -3 2 -7 -8 -8
-22 l-1 -27 14 28 c9 16 20 25 26 21 7 -5 5 -11 -6 -20 -9 -6 -18 -21 -19 -33
-2 -26 -13 -27 -26 -3 -6 9 -11 12 -11 6 0 -16 27 -37 39 -30 15 10 25 -14 12
-27 -9 -9 -11 -8 -8 3 2 8 2 12 0 8 -3 -5 -14 -3 -26 2 -22 10 -22 10 0 -6 18
-13 21 -20 12 -36 -7 -13 -16 -17 -27 -13 -13 5 -14 4 -5 -6 10 -10 16 -9 29
2 16 12 17 12 11 -5 -9 -24 12 -53 24 -34 6 8 9 9 9 2 0 -6 -8 -18 -17 -25
-11 -10 -14 -10 -9 -1 4 6 3 12 -2 12 -15 0 -22 -26 -10 -38 8 -8 7 -16 -3
-28 -8 -10 -9 -15 -3 -11 7 4 12 -2 12 -18 0 -14 -3 -23 -7 -21 -3 2 -7 -8 -8
-22 l-1 -27 14 28 c9 16 20 25 26 21 7 -5 5 -11 -6 -20 -9 -6 -18 -21 -19 -33
-2 -26 -13 -27 -26 -3 -6 9 -11 12 -11 5 0 -6 9 -18 20 -26 11 -8 17 -17 13
-21 -4 -3 -8 -15 -10 -26 -2 -13 3 -18 17 -17 11 1 20 5 20 10 0 5 -7 6 -16 3
-13 -5 -14 -3 -7 6 6 7 9 21 7 31 -1 11 0 16 4 13 3 -4 7 -12 8 -19 1 -7 5
-19 9 -28 4 -11 -3 -24 -22 -39 -23 -18 -24 -21 -8 -18 11 1 23 8 27 13 5 6 8
5 8 -2 0 -20 -33 -33 -55 -21 -11 6 -17 7 -13 3 4 -5 2 -15 -5 -24 -11 -14
-10 -14 6 -2 14 11 20 11 34 0 9 -8 14 -9 10 -3 -3 6 0 11 8 11 10 0 12 -4 5
-12 -6 -7 -5 -16 3 -25 10 -10 9 -11 -2 -5 -11 6 -13 4 -8 -8 4 -10 10 -23 13
-31 3 -8 -7 -23 -23 -36 -23 -18 -24 -21 -8 -18 11 1 23 8 27 13 5 6 8 5 8 -2
0 -20 -33 -33 -55 -21 -11 6 -17 7 -13 3 4 -5 2 -15 -5 -24 -11 -14 -10 -14 6
-2 14 11 20 11 34 0 9 -8 14 -9 10 -3 -3 6 0 11 8 11 11 0 12 -4 4 -13 -7 -8
-7 -14 1 -19 7 -4 6 -13 -2 -28 -13 -26 -13 -28 2 -37 8 -5 8 -9 -3 -13 -12
-4 -14 2 -11 31 2 26 1 33 -6 22 -5 -8 -10 -10 -10 -5 0 6 6 17 13 24 10 10 9
11 -5 6 -21 -8 -23 -26 -5 -44 10 -11 8 -12 -10 -6 -14 4 -23 2 -23 -4 0 -6 3
-10 8 -10 32 5 41 -43 12 -71 -9 -8 -11 -12 -6 -7 18 13 29 7 16 -8 -7 -9 -10
-18 -6 -22 3 -3 6 -1 6 6 0 7 4 10 10 6 6 -4 6 -15 0 -31 -6 -14 -7 -31 -3
-37 4 -7 0 -8 -13 -4 -18 7 -18 6 -1 -7 18 -14 24 -32 7 -21 -5 3 -10 2 -10
-4 0 -22 18 -19 29 5 6 14 7 23 2 20 -5 -4 -8 5 -6 19 3 32 11 40 19 20 3 -9
2 -13 -4 -10 -11 7 -14 -8 -3 -19 11 -10 12 -36 2 -36 -5 0 -9 -5 -9 -11 0 -5
5 -7 12 -3 7 5 8 3 2 -7 -12 -20 -14 -38 -3 -45 12 -7 2 -24 -14 -24 -8 0 -8
3 2 9 7 5 9 11 4 14 -5 3 -15 -3 -22 -15 -7 -11 -8 -17 -3 -14 5 3 10 -5 10
-19 0 -14 -3 -23 -7 -21 -3 2 -7 -8 -8 -22 l-1 -27 14 28 c9 16 20 25 26 21 7
-5 5 -11 -6 -20 -9 -6 -18 -21 -19 -33 -2 -26 -13 -27 -26 -3 -6 9 -11 11 -11
5 0 -7 9 -18 20 -25 11 -7 20 -16 20 -21 0 -4 -4 -6 -9 -3 -5 3 -8 -6 -8 -19
0 -26 11 -33 23 -13 5 7 3 8 -5 3 -10 -6 -11 -3 -2 14 7 12 9 27 5 33 -5 7 -3
8 5 3 7 -4 11 -16 8 -26 -3 -10 0 -22 5 -26 16 -9 -20 -33 -40 -27 -14 4 -13
3 1 -6 15 -10 16 -14 5 -28 -7 -9 -8 -13 -2 -9 7 4 12 -2 12 -18 0 -14 -3 -23
-7 -21 -3 2 -7 -11 -7 -29 -1 -27 2 -33 17 -32 11 1 19 5 19 10 0 5 -8 6 -17
2 -14 -5 -15 -3 -6 6 6 6 9 19 7 28 -3 9 2 3 12 -13 16 -29 16 -30 -11 -54
-22 -19 -24 -23 -9 -20 10 2 22 8 26 13 5 6 8 5 8 -2 0 -20 -33 -33 -55 -21
-11 6 -17 7 -13 3 4 -5 2 -15 -5 -24 -11 -14 -10 -14 6 -2 14 11 20 11 34 0 9
-8 14 -9 10 -3 -3 6 0 11 8 11 10 0 12 -4 5 -12 -6 -7 -5 -16 3 -25 10 -10 9
-11 -2 -5 -14 8 -14 7 6 -41 2 -7 -8 -22 -24 -34 -23 -18 -24 -21 -8 -18 11 1
23 8 27 13 5 6 8 5 8 -2 0 -20 -33 -33 -55 -21 -11 6 -17 7 -13 3 4 -5 2 -15
-5 -24 -11 -14 -10 -14 6 -2 14 11 20 11 34 0 9 -8 14 -9 10 -3 -3 6 0 11 8
11 10 0 12 -4 5 -12 -6 -7 -6 -15 1 -22 8 -8 8 -13 0 -17 -6 -4 -11 -12 -11
-17 0 -6 4 -8 8 -5 4 2 8 -3 8 -13 0 -10 -6 -18 -12 -18 -7 0 -10 6 -7 13 6
17 -10 25 -27 12 -12 -8 -12 -9 3 -4 9 3 17 1 17 -4 0 -6 -6 -10 -12 -10 -8 0
-9 -3 -3 -8 6 -4 11 -20 11 -37 3 -44 2 -43 21 -48 17 -4 17 -5 1 -6 -10 0
-18 -6 -18 -12 0 -6 7 -8 16 -5 9 3 12 2 9 -5 -4 -6 -13 -8 -21 -5 -7 3 -16 0
-20 -6 -4 -6 -3 -8 3 -5 6 4 11 -4 11 -18 0 -14 -3 -23 -7 -21 -3 2 -7 -8 -8
-22 l-1 -27 14 28 c9 16 20 25 26 21 7 -5 5 -11 -6 -20 -9 -6 -18 -21 -19 -33
-2 -26 -13 -27 -26 -3 -6 9 -11 12 -11 6 0 -16 27 -37 39 -30 15 10 25 -14 12
-27 -9 -9 -11 -8 -8 3 2 8 2 12 0 8 -3 -5 -14 -3 -26 2 -22 10 -22 10 0 -6 18
-13 21 -20 12 -36 -7 -13 -16 -17 -27 -13 -13 5 -14 4 -5 -6 10 -10 16 -9 29
2 16 12 17 12 11 -5 -9 -24 12 -53 24 -34 6 8 9 9 9 2 0 -6 -8 -18 -17 -25
-11 -10 -14 -10 -9 -1 4 6 3 12 -2 12 -15 0 -22 -26 -10 -38 8 -8 7 -16 -3
-28 -8 -10 -9 -15 -3 -11 7 4 12 -2 12 -18 0 -14 -3 -23 -7 -21 -3 2 -7 -8 -8
-22 l-1 -27 14 28 c9 16 20 25 26 21 7 -5 5 -11 -6 -20 -9 -6 -18 -21 -19 -33
-2 -26 -13 -27 -26 -4 -6 10 -11 12 -11 6 0 -7 9 -18 20 -25 11 -7 20 -19 20
-26 0 -7 -4 -11 -8 -8 -4 2 -8 -4 -9 -14 -1 -13 5 -18 18 -17 10 1 19 5 19 10
0 5 -7 6 -16 3 -14 -6 -15 -4 -4 9 12 15 14 15 23 -1 8 -14 4 -23 -18 -42 -22
-18 -24 -23 -9 -20 10 2 22 8 26 13 5 6 8 5 8 -3 0 -7 -7 -15 -15 -18 -8 -4
-15 -13 -15 -21 0 -13 2 -13 18 -2 15 13 16 12 4 -3 -9 -11 -10 -18 -2 -23 6
-3 8 -11 4 -16 -3 -5 -10 -7 -15 -3 -5 3 -7 10 -4 15 3 5 -2 6 -11 2 -13 -5
-15 -3 -9 7 5 8 4 11 -3 7 -11 -7 -11 -32 0 -43 4 -3 4 -12 1 -20 -6 -17 6
-18 27 -3 12 9 11 10 -5 4 -15 -5 -17 -3 -8 6 17 17 35 2 23 -21 -7 -13 -7
-21 0 -25 13 -8 3 -25 -13 -25 -7 0 -6 4 3 11 10 7 11 9 2 7 -8 -2 -13 -7 -12
-12 1 -5 -4 -13 -12 -17 -7 -5 -8 -9 -3 -9 6 0 11 -9 12 -20 1 -13 -2 -18 -10
-13 -9 5 -8 2 0 -9 7 -8 9 -19 5 -23 -4 -5 -1 -5 6 -1 7 4 10 11 7 16 -3 4 2
13 9 19 11 9 14 9 12 -1 -1 -7 -5 -19 -9 -25 -7 -12 -3 -16 13 -15 3 0 6 -8 6
-19 0 -11 -5 -18 -12 -15 -7 3 -18 -1 -24 -9 -10 -11 -7 -13 17 -10 26 4 26 4
6 -7 -12 -6 -24 -17 -27 -24 -4 -11 1 -10 20 2 13 9 27 14 31 10 3 -3 1 -6 -5
-6 -7 0 -12 -4 -12 -10 0 -5 8 -7 17 -4 14 5 15 4 4 -4 -11 -8 -11 -11 3 -19
14 -7 13 -10 -4 -21 -15 -9 -20 -9 -20 0 0 6 -3 9 -6 5 -14 -14 8 -27 28 -16
12 7 18 7 14 1 -3 -6 -1 -12 5 -14 5 -2 7 -11 4 -20 -4 -9 -13 -14 -21 -11 -8
3 -11 9 -8 14 3 5 10 6 16 3 7 -4 8 -2 4 5 -6 9 -11 9 -23 0 -13 -12 -13 -14
1 -25 9 -6 16 -16 16 -23 0 -6 14 -20 32 -31 24 -15 34 -16 40 -7 6 9 8 9 8 0
0 -6 -5 -15 -10 -18 -6 -4 -7 -11 -4 -17 4 -7 2 -8 -5 -4 -6 4 -9 11 -6 16 6
10 -21 7 -32 -4 -4 -4 -3 -6 2 -4 6 2 10 -2 10 -7 0 -5 -4 -9 -8 -7 -5 1 -6
-2 -2 -8 5 -8 11 -8 20 0 9 7 16 6 26 -7 12 -15 12 -16 -4 -10 -11 4 -16 3
-12 -4 4 -6 13 -8 20 -5 8 3 19 -3 27 -11 11 -14 11 -16 -3 -11 -9 4 -16 1
-16 -7 0 -10 5 -11 19 -4 14 7 18 6 18 -6 0 -9 -4 -14 -8 -11 -5 3 -9 -2 -9
-10 0 -10 4 -11 11 -4 7 7 17 3 33 -12 14 -13 22 -16 18 -8 -3 9 4 21 17 29
21 13 22 13 10 -1 -7 -9 -11 -21 -10 -26 2 -6 -6 -18 -17 -27 -20 -16 -19 -16
3 -5 17 8 26 8 37 -3 8 -8 11 -19 7 -23 -4 -5 -1 -4 7 3 20 18 42 -6 29 -32
-9 -19 -9 -19 6 -1 14 17 16 17 32 2 16 -16 18 -16 43 8 15 14 31 26 35 26 5
0 -1 -8 -13 -17 -24 -21 -35 -59 -19 -69 7 -4 8 -2 4 4 -4 7 -1 12 9 12 9 0
23 6 31 14 12 13 12 15 -5 13 -11 0 -17 -5 -15 -9 3 -4 -3 -8 -12 -8 -16 0
-16 1 1 20 10 11 22 17 27 14 5 -3 14 -1 21 5 9 7 16 5 24 -9 10 -15 9 -21 -5
-32 -15 -11 -15 -11 -5 3 13 16 8 29 -10 29 -6 0 -7 -3 -4 -6 3 -4 2 -15 -4
-25 -7 -13 -6 -25 1 -37 10 -15 10 -15 5 3 -4 16 0 21 15 22 11 1 18 -2 15 -7
-3 -5 -1 -11 4 -14 5 -4 12 -2 16 4 4 6 10 8 15 5 12 -7 41 5 35 15 -3 5 -1
11 5 15 6 4 7 11 4 17 -4 7 -2 8 5 4 9 -6 9 -11 0 -22 -8 -9 -8 -14 -1 -14 6
0 16 8 21 18 10 16 10 16 11 0 0 -10 5 -18 11 -18 5 0 7 5 3 12 -4 7 -3 8 5 4
6 -4 9 -11 6 -16 -3 -5 4 -8 15 -7 11 1 20 5 20 10 0 4 5 5 10 2 18 -11 11
-24 -10 -20 -12 2 -18 0 -15 -6 4 -5 11 -7 16 -4 5 4 9 2 9 -3 0 -14 48 -12
53 3 3 6 -1 12 -9 12 -7 0 -11 -3 -9 -7 2 -4 -2 -7 -10 -7 -10 0 -12 4 -5 12
6 7 6 15 -1 22 -8 8 -7 13 2 18 7 5 10 4 6 -2 -4 -6 1 -17 10 -24 15 -12 16
-12 10 6 -6 16 -3 15 12 -5 14 -18 16 -27 8 -33 -8 -5 -5 -7 8 -5 12 2 19 -2
18 -9 -2 -7 2 -13 8 -13 6 0 9 6 6 13 -3 7 1 21 9 31 7 11 11 23 8 27 -3 5 2
6 10 3 9 -3 16 -10 16 -16 0 -5 6 -6 13 -2 9 6 9 4 0 -7 -7 -7 -13 -16 -13
-20 0 -11 26 -18 39 -9 10 6 10 14 -2 37 -14 27 -14 29 3 29 14 0 16 -3 8 -13
-7 -9 -7 -13 0 -13 6 0 14 5 17 10 5 8 11 7 21 -1 21 -17 17 -28 -11 -25 -13
2 -22 -1 -19 -6 3 -5 12 -7 20 -4 8 3 14 1 14 -4 0 -6 5 -10 11 -10 5 0 7 5 4
10 -4 6 6 10 24 10 18 0 34 -7 40 -18 6 -10 11 -12 11 -4 0 7 4 11 9 7 5 -3
13 -1 16 5 5 8 11 7 21 -1 11 -9 14 -9 14 0 0 7 5 9 10 6 6 -4 7 -12 3 -18 -3
-7 3 -4 14 6 18 16 22 16 33 2 12 -15 35 -11 25 5 -3 5 4 8 15 7 11 -1 20 -5
20 -10 0 -5 7 -6 16 -3 11 4 15 2 11 -7 -3 -8 1 -14 9 -14 12 0 12 3 0 21 -7
12 -22 21 -33 20 -11 -1 -26 8 -33 20 -12 19 -12 20 4 7 14 -12 19 -12 25 -2
6 9 10 8 15 -6 7 -17 8 -17 23 2 15 20 15 20 9 -1 -4 -14 0 -28 11 -40 10 -11
15 -15 11 -10 -12 16 -9 26 7 26 8 0 14 -3 14 -7 -4 -22 3 -24 27 -8 26 17 27
17 21 -4 -3 -11 -1 -19 4 -15 5 3 9 11 9 18 0 7 9 21 20 31 11 10 20 14 20 9
0 -5 5 -2 11 6 8 12 9 11 4 -6 -3 -13 1 -28 12 -40 10 -11 15 -15 11 -10 -12
16 -9 26 7 26 8 0 14 -3 14 -7 -4 -22 3 -24 27 -8 26 17 27 17 21 -4 -3 -11
-1 -19 4 -15 5 3 9 11 9 18 0 17 38 51 47 43 3 -4 0 -7 -8 -7 -12 0 -11 -2 1
-11 13 -8 12 -9 -4 -7 -12 2 -20 -4 -22 -15 -2 -13 1 -15 10 -8 15 13 52 7 49
-8 -2 -6 2 -11 8 -11 6 0 9 6 6 13 -3 7 1 21 9 31 7 11 12 22 9 25 -2 4 5 7
15 7 11 0 16 -5 12 -15 -4 -10 -1 -12 9 -6 11 6 12 5 2 -6 -16 -16 -17 -29 -2
-29 5 0 7 4 4 10 -3 5 1 10 10 10 9 0 13 -4 10 -10 -3 -5 -1 -10 4 -10 6 0 11
4 11 10 0 5 7 7 16 3 11 -4 12 -8 4 -13 -9 -5 -9 -9 -1 -14 10 -6 15 6 12 27
0 4 8 7 19 7 11 0 20 -4 20 -9 0 -5 11 -8 25 -8 14 0 25 3 25 8 0 4 -9 6 -20
4 -12 -2 -18 0 -15 6 4 5 3 9 -2 8 -26 -4 -34 1 -21 15 11 12 14 12 21 0 5 -8
13 -12 19 -8 6 4 5 9 -3 15 -10 6 -7 8 9 6 22 -1 32 -17 11 -17 -5 0 -7 -5 -4
-10 4 -6 11 -7 17 -4 6 4 16 0 22 -8 6 -9 23 -15 36 -14 15 0 24 -4 23 -11 -2
-7 2 -13 8 -13 6 0 9 6 6 13 -3 7 1 21 9 31 7 11 12 22 9 25 -2 4 5 7 15 7 11
0 16 -5 12 -15 -4 -10 -1 -12 9 -6 11 6 12 5 2 -6 -16 -16 -17 -29 -2 -29 5 0
7 5 4 10 -3 6 1 10 10 10 9 0 13 -5 10 -10 -3 -6 -1 -10 4 -10 6 0 11 4 11 8
0 4 9 8 20 8 11 0 20 -4 20 -8 0 -4 5 -8 11 -8 5 0 7 5 4 10 -4 6 6 10 24 10
18 0 34 -7 40 -17 6 -11 11 -13 11 -5 0 7 4 11 9 7 5 -3 13 0 17 6 5 8 13 4
27 -12 l19 -24 -15 25 c-13 23 -13 28 0 45 15 20 15 20 9 -1 -4 -14 0 -28 11
-40 10 -11 15 -15 11 -10 -12 16 -9 26 7 26 8 0 14 -3 14 -8 -4 -21 3 -23 27
-7 26 17 27 17 21 -4 -3 -11 -1 -19 4 -15 5 3 9 11 9 18 0 7 9 21 20 31 11 10
20 14 20 9 0 -5 5 -2 11 6 8 12 9 11 4 -6 -3 -13 1 -28 12 -40 10 -11 15 -15
11 -10 -12 16 -9 26 7 26 8 0 14 -3 14 -7 -4 -22 3 -24 27 -8 27 17 27 17 21
-5 -6 -25 1 -20 17 11 6 12 21 28 33 36 19 13 21 13 19 -2 -1 -10 -11 -22 -21
-27 -14 -8 -16 -8 -10 3 5 8 4 10 0 6 -5 -4 -10 -14 -11 -23 -2 -11 1 -12 10
-5 7 6 16 8 19 4 4 -3 7 -2 7 3 0 5 14 10 30 10 25 1 28 -1 19 -12 -7 -9 -8
-14 -1 -14 14 0 23 28 12 35 -6 4 -10 12 -9 18 0 9 2 8 6 -1 2 -6 9 -10 13 -7
5 3 12 0 16 -6 4 -7 3 -9 -4 -6 -6 5 -8 -1 -4 -15 5 -19 7 -20 10 -5 2 9 8 14
14 11 6 -4 8 -3 5 2 -3 6 3 16 14 22 19 12 19 11 9 -9 -8 -15 -9 -19 -1 -15 6
4 11 3 11 -2 0 -5 10 -9 23 -8 13 1 21 -4 20 -11 -2 -7 2 -13 8 -13 6 0 9 6 6
13 -3 7 1 21 9 31 7 11 12 22 9 25 -2 4 5 7 15 7 11 0 16 -5 12 -15 -4 -10 -1
-12 9 -6 11 6 12 5 2 -6 -16 -16 -17 -29 -2 -29 5 0 7 5 4 10 -3 6 1 10 10 10
9 0 13 -4 10 -10 -3 -5 -1 -10 4 -10 6 0 11 4 11 8 0 4 9 8 20 8 11 0 20 -4
20 -8 0 -4 5 -8 11 -8 5 0 7 5 4 10 -4 6 6 10 24 10 18 0 34 -7 40 -17 6 -11
11 -13 11 -5 0 7 4 11 9 7 5 -3 13 -1 16 5 5 8 11 7 21 -1 11 -9 14 -9 14 0 0
7 5 9 10 6 6 -4 7 -12 3 -18 -3 -7 3 -4 14 6 18 16 22 16 33 2 12 -15 35 -11
25 5 -3 5 4 8 15 7 11 -1 20 -5 20 -10 0 -5 7 -6 16 -3 11 4 15 2 11 -7 -3 -8
1 -14 9 -14 12 0 12 3 0 21 -7 12 -22 21 -33 20 -11 -1 -26 8 -33 20 -12 19
-12 20 4 7 14 -12 19 -12 25 -2 6 9 10 8 15 -6 7 -17 8 -17 23 2 15 20 15 20
9 -1 -4 -14 0 -28 11 -40 10 -11 15 -15 11 -10 -12 16 -9 26 7 26 8 0 14 -3
14 -8 -4 -21 3 -23 27 -7 26 17 27 17 21 -4 -3 -11 -1 -19 4 -15 5 3 9 11 9
18 0 7 9 21 20 31 11 10 20 14 20 9 0 -5 5 -2 11 6 8 12 9 11 4 -6 -3 -13 1
-28 12 -40 10 -11 15 -15 11 -10 -12 16 -9 26 7 26 8 0 14 -3 14 -8 -4 -21 3
-23 27 -7 26 17 27 17 21 -4 -3 -11 -1 -19 4 -15 5 3 9 11 9 18 0 18 27 40 53
42 12 2 16 0 9 -2 -17 -8 -5 -24 13 -18 8 4 18 -1 21 -10 3 -9 14 -16 23 -16
14 0 14 2 1 10 -11 7 -7 10 17 10 19 0 36 -6 41 -16 8 -14 10 -14 17 2 7 18 8
18 15 -1 8 -18 9 -18 9 -2 1 10 6 15 11 12 6 -4 8 -10 6 -14 -3 -4 1 -8 9 -8
8 0 12 4 9 8 -9 15 30 28 50 17 14 -8 17 -8 11 2 -5 9 -2 10 12 6 14 -4 20 -2
20 9 0 18 -2 18 -29 4 -15 -8 -19 -8 -14 0 9 14 0 14 -27 -1 -34 -19 -44 -18
-55 8 -8 17 -8 25 0 30 7 4 8 3 4 -4 -4 -7 -2 -12 4 -12 6 0 8 -5 5 -10 -4 -7
3 -8 22 -4 46 10 108 10 110 -1 0 -5 -3 -9 -9 -7 -5 1 -6 -3 -2 -9 3 -6 0 -16
-7 -21 -11 -8 -11 -9 2 -5 9 3 23 0 30 -6 12 -10 12 -9 1 3 -6 7 -12 18 -12
22 0 12 23 5 38 -12 12 -13 13 -13 6 0 -4 8 -16 27 -26 42 -12 17 -15 29 -8
33 6 4 10 3 9 -2 -3 -20 2 -25 16 -13 8 7 15 8 15 3 0 -5 9 -9 20 -9 11 0 20
4 20 8 0 4 7 8 15 8 9 0 18 7 22 16 4 10 8 12 13 5 4 -8 16 -3 33 13 17 16 27
20 27 11 0 -7 -6 -16 -12 -18 -8 -3 -5 -6 5 -6 10 -1 15 -6 12 -11 -3 -6 -1
-10 5 -10 7 0 10 6 7 14 -4 10 0 13 14 11 11 -2 17 0 14 4 -2 5 3 15 12 22 15
12 16 12 10 -4 -4 -11 -3 -16 3 -12 12 7 13 35 2 35 -4 0 -13 -5 -20 -12 -9
-9 -12 -9 -12 1 0 7 -5 9 -11 6 -6 -4 -8 -14 -4 -24 4 -11 3 -13 -5 -5 -17 17
-1 46 22 38 12 -4 18 -2 15 3 -4 6 4 8 18 5 14 -2 23 -8 20 -12 -7 -11 22 -6
32 5 4 4 3 5 -3 2 -7 -4 -20 5 -29 19 -9 15 -12 23 -6 20 6 -4 11 -3 11 3 0
17 27 1 37 -21 8 -20 10 -20 16 -4 5 11 3 15 -4 10 -7 -4 -10 -1 -7 7 3 8 14
13 24 11 18 -3 18 -3 -1 12 -11 8 -16 16 -11 16 5 0 2 8 -5 17 -8 9 -9 14 -4
11 10 -6 29 9 34 27 1 6 5 11 7 13 2 1 2 -1 -1 -5 -3 -3 1 -13 8 -21 10 -13 9
-14 -2 -7 -10 6 -12 4 -6 -5 6 -9 4 -11 -5 -5 -9 6 -11 4 -5 -5 5 -9 4 -11 -3
-6 -8 5 -10 2 -6 -8 3 -9 14 -16 23 -15 10 0 11 2 3 6 -15 6 -6 23 11 19 7 -1
9 -1 4 1 -4 3 -4 9 -1 14 3 6 12 5 22 -3 15 -12 16 -11 3 4 -7 10 -18 15 -24
11 -6 -4 -8 0 -4 9 3 9 0 21 -6 27 -9 10 -9 12 3 9 9 -2 14 4 14 14 -1 10 3
15 9 11 6 -4 8 0 4 9 -6 17 16 19 30 3 5 -4 2 -5 -6 0 -11 6 -13 4 -8 -9 4
-10 7 -23 8 -29 1 -7 4 -1 8 13 4 14 4 38 -1 54 -6 22 -3 34 9 48 9 10 13 18
9 18 -4 0 -1 10 6 23 6 12 13 31 15 41 4 24 11 32 19 23 4 -4 1 -14 -7 -24 -8
-9 -9 -14 -2 -10 6 4 14 3 18 -3 3 -5 -1 -10 -9 -10 -8 0 -17 -3 -19 -7 -3 -5
5 -8 18 -8 18 0 22 5 20 26 -1 15 -6 32 -10 40 -6 9 -3 11 11 5 18 -7 18 -6
-1 12 -11 11 -24 17 -29 14 -5 -3 -6 0 -2 6 5 9 13 9 26 2 29 -16 34 -12 11 8
-21 17 -39 68 -20 57 5 -4 7 -10 5 -14 -3 -4 0 -13 6 -21 8 -13 9 -12 5 2 -7
21 3 31 19 17 8 -7 14 -7 19 1 4 6 1 9 -7 8 -7 -2 -12 3 -10 11 3 12 1 12 -14
0 -15 -13 -16 -12 -9 11 7 23 7 24 -10 10 -17 -14 -17 -13 -7 7 8 14 9 24 2
28 -12 8 9 44 24 41 6 -2 8 -1 4 1 -5 3 -8 12 -8 21 0 15 2 15 10 2 7 -12 9
-10 7 8 -2 29 -4 28 -26 -9 -18 -30 -19 -30 -18 -6 1 14 6 23 11 20 4 -3 5 5
1 17 -11 35 -13 70 -4 64 5 -3 9 0 9 7 0 8 5 8 18 -2 15 -11 15 -11 4 1 -7 8
-18 15 -24 15 -6 0 -12 10 -13 23 -2 25 22 65 34 58 4 -3 8 1 8 9 0 11 -5 10
-26 -2 l-26 -15 27 25 c22 20 24 26 12 31 -8 3 -13 2 -10 -3 3 -5 0 -11 -7
-14 -7 -3 -13 3 -13 13 0 10 4 16 8 14 10 -6 11 10 1 20 -10 10 -11 46 -1 40
4 -3 8 2 8 11 0 9 4 13 10 10 6 -4 7 1 3 11 -6 16 -7 15 -20 -2 -7 -10 -13
-14 -13 -8 0 5 7 17 14 27 13 17 15 17 30 -5 9 -12 16 -17 16 -11 0 7 -5 15
-10 18 -6 4 -7 11 -4 17 4 7 2 8 -4 4 -7 -4 -12 -3 -12 3 0 5 5 13 10 16 6 4
8 11 4 16 -3 5 -10 7 -15 3 -5 -3 -7 -8 -5 -12 2 -4 -2 -16 -10 -27 -14 -19
-15 -19 -10 0 12 56 18 65 37 55 15 -8 17 -7 13 5 -3 8 -11 12 -16 9 -6 -4 -9
-1 -6 7 3 8 10 14 16 14 5 0 14 5 19 10 4 6 4 7 -1 2 -5 -4 -18 0 -28 10 -11
9 -18 11 -18 5 0 -7 5 -12 11 -12 5 0 7 -5 3 -11 -4 -8 -9 -7 -16 2 -7 10 -8
9 -4 -6 3 -11 2 -26 -3 -33 -4 -8 -7 5 -7 32 1 24 4 42 9 39 4 -2 7 1 7 7 0 6
4 9 9 5 5 -3 13 0 17 6 4 8 3 9 -4 5 -7 -4 -12 -2 -12 5 0 8 -4 8 -16 -1 -13
-12 -14 -10 -3 14 12 26 14 26 26 10 7 -10 13 -14 13 -8 0 5 -7 17 -14 27 -14
18 -15 18 -25 0 -6 -10 -10 -13 -10 -8 0 18 24 42 37 38 6 -3 12 0 12 7 0 6
-4 8 -10 5 -5 -3 -10 -2 -10 4 0 5 5 13 11 17 8 4 7 9 -2 15 -11 7 -9 9 6 10
11 0 14 3 7 6 -6 2 -10 10 -6 16 3 7 -1 3 -10 -7 -8 -10 -13 -23 -10 -27 3 -5
-1 -18 -9 -30 -14 -20 -15 -19 -13 15 2 20 10 44 20 55 13 14 14 21 5 27 -7 4
-10 3 -6 -3 4 -6 1 -13 -6 -16 -7 -3 -13 3 -13 13 0 10 4 16 8 14 4 -3 8 -1 8
5 0 5 -4 12 -9 15 -4 3 -7 17 -5 31 3 29 22 57 33 50 4 -2 8 2 8 10 0 11 -5
10 -26 -2 l-26 -15 27 25 c22 20 24 26 12 31 -8 3 -13 2 -10 -3 3 -5 0 -11 -7
-14 -7 -3 -13 3 -13 13 0 10 4 16 8 14 10 -6 11 10 1 20 -10 10 -11 46 -1 40
4 -3 8 2 8 11 0 9 4 13 10 10 6 -4 7 1 3 11 -6 16 -7 15 -20 -2 -7 -10 -13
-14 -13 -8 0 5 7 17 14 27 13 17 15 17 30 -5 9 -12 16 -17 16 -11 0 7 -5 15
-10 18 -6 4 -7 11 -4 17 4 7 2 8 -4 4 -7 -4 -12 -3 -12 3 0 5 5 13 10 16 6 4
8 11 4 16 -3 5 -10 7 -15 3 -5 -3 -7 -8 -5 -12 2 -4 -2 -16 -10 -27 -14 -19
-15 -19 -10 0 12 56 18 65 37 55 15 -8 17 -7 13 5 -3 8 -11 12 -16 9 -6 -4 -9
-1 -6 7 3 8 10 14 15 14 6 0 14 3 17 7 3 5 3 6 -1 3 -3 -3 -15 2 -25 12 -11 9
-18 11 -18 5 0 -7 5 -12 11 -12 5 0 7 -5 3 -11 -4 -8 -9 -7 -16 2 -7 10 -8 9
-4 -6 3 -11 2 -26 -3 -33 -4 -8 -7 5 -7 32 1 24 4 42 9 39 4 -2 7 1 7 7 0 6 4
9 9 5 5 -3 13 0 17 6 4 8 3 9 -4 5 -7 -4 -12 -2 -12 5 0 8 -4 8 -16 -1 -13
-12 -14 -10 -3 14 12 26 14 26 26 10 7 -10 13 -14 13 -8 0 5 -7 17 -14 27 -14
18 -15 18 -25 0 -6 -10 -10 -13 -10 -8 0 18 24 42 37 38 6 -3 12 0 12 7 0 6
-4 8 -10 5 -5 -3 -10 -2 -10 4 0 5 5 13 11 17 8 4 7 9 -2 15 -11 7 -9 9 6 10
11 0 14 3 7 6 -6 2 -10 10 -6 16 3 7 -1 3 -10 -7 -8 -10 -13 -23 -10 -27 3 -5
-1 -18 -9 -30 -14 -20 -15 -19 -13 15 2 20 10 44 20 55 13 14 14 21 5 27 -7 4
-10 3 -6 -3 4 -6 1 -13 -6 -16 -7 -3 -13 3 -13 13 0 10 4 16 8 14 4 -3 8 -1 8
5 0 5 -4 12 -9 15 -4 3 -7 17 -5 31 3 29 22 57 33 50 4 -2 8 2 8 10 0 11 -5
10 -26 -2 l-26 -15 27 25 c22 20 24 26 12 31 -8 3 -13 2 -10 -3 3 -5 0 -11 -7
-14 -7 -3 -13 3 -13 13 0 10 4 16 8 14 10 -6 11 10 1 20 -10 10 -11 46 -1 40
4 -3 8 2 8 11 0 9 4 13 10 10 6 -4 7 1 3 11 -6 16 -7 15 -20 -2 -7 -10 -13
-14 -13 -8 0 5 7 17 14 27 13 17 15 17 30 -5 9 -12 16 -17 16 -11 0 7 -5 15
-10 18 -6 4 -7 11 -4 17 4 7 2 8 -4 4 -7 -4 -12 -3 -12 3 0 5 5 13 10 16 6 4
8 11 4 16 -3 5 -10 7 -15 3 -5 -3 -7 -8 -5 -12 2 -4 -2 -16 -10 -27 -14 -19
-15 -19 -10 0 12 56 18 65 37 55 15 -8 17 -7 13 5 -3 8 -11 12 -16 9 -6 -4 -9
-1 -6 7 3 8 10 14 16 14 5 0 13 3 16 8 3 4 3 5 -1 2 -3 -3 -15 2 -25 12 -11 9
-18 11 -18 5 0 -7 5 -12 11 -12 5 0 7 -5 3 -11 -4 -8 -9 -7 -16 2 -7 10 -8 9
-4 -6 3 -11 2 -26 -3 -33 -4 -8 -7 5 -7 32 1 24 4 42 9 39 4 -2 7 1 7 7 0 6 4
9 9 5 5 -3 13 0 17 6 4 8 3 9 -4 5 -7 -4 -12 -2 -12 5 0 8 -4 8 -16 -1 -13
-12 -14 -10 -3 14 12 26 14 26 26 10 7 -10 13 -14 13 -8 0 5 -7 17 -14 27 -14
18 -15 18 -25 0 -6 -10 -10 -13 -10 -8 0 18 24 42 37 38 6 -3 12 0 12 7 0 6
-4 8 -10 5 -5 -3 -10 -2 -10 4 0 5 5 13 11 17 8 4 7 9 -2 15 -11 7 -9 9 6 10
11 0 14 3 7 6 -6 2 -10 10 -6 16 3 7 -1 3 -10 -7 -8 -10 -13 -23 -10 -27 3 -5
-1 -18 -9 -30 -14 -20 -15 -19 -13 15 2 20 10 44 20 55 13 14 14 21 5 27 -7 4
-10 3 -6 -3 4 -6 1 -13 -6 -16 -7 -3 -13 3 -13 13 0 10 4 16 8 14 4 -3 8 -1 8
5 0 5 -4 12 -9 15 -4 3 -7 17 -5 31 3 29 22 57 33 50 4 -2 8 2 8 10 0 11 -5
10 -26 -2 l-26 -15 27 25 c22 20 24 26 12 31 -8 3 -13 2 -10 -3 3 -5 0 -11 -7
-14 -7 -3 -13 3 -13 13 0 10 4 16 8 14 10 -6 11 10 1 20 -10 10 -11 46 -1 40
4 -3 8 2 8 11 0 9 4 13 10 10 6 -4 7 1 3 11 -6 16 -7 15 -20 -2 -7 -10 -13
-14 -13 -8 0 5 7 17 14 27 13 17 15 17 30 -5 9 -12 16 -17 16 -11 0 7 -5 15
-10 18 -6 4 -7 11 -4 17 4 7 2 8 -4 4 -7 -4 -12 -3 -12 3 0 5 5 13 10 16 6 4
8 11 4 16 -3 5 -10 7 -15 3 -5 -3 -7 -8 -5 -12 2 -4 -2 -16 -10 -27 -14 -19
-15 -19 -10 0 12 56 18 65 37 55 15 -8 17 -7 13 5 -3 8 -11 12 -16 9 -6 -4 -9
-1 -6 7 3 8 10 14 15 14 6 0 14 3 17 7 3 5 3 6 -1 3 -3 -3 -15 2 -25 12 -11 9
-18 11 -18 5 0 -7 5 -12 11 -12 5 0 7 -5 3 -11 -4 -8 -9 -7 -16 2 -7 10 -8 9
-4 -6 3 -11 2 -26 -3 -33 -4 -8 -7 5 -7 32 1 24 4 42 9 39 4 -2 7 1 7 7 0 6 4
9 9 5 5 -3 13 0 17 6 4 8 3 9 -4 5 -7 -4 -12 -2 -12 5 0 8 -4 8 -16 -1 -13
-12 -14 -10 -3 14 12 26 14 26 26 10 7 -10 13 -14 13 -8 0 5 -7 17 -14 27 -14
18 -15 18 -25 0 -6 -10 -10 -13 -10 -8 0 18 24 42 37 38 6 -3 12 0 12 7 0 6
-4 8 -10 5 -5 -3 -10 -2 -10 4 0 5 5 13 11 17 8 4 7 9 -2 15 -11 7 -9 9 6 10
11 0 14 3 7 6 -6 2 -10 10 -6 16 3 7 -1 3 -10 -7 -8 -10 -13 -23 -10 -27 3 -5
-1 -18 -9 -30 -14 -20 -15 -19 -13 15 2 20 10 44 20 55 13 14 14 21 5 27 -7 4
-10 3 -6 -3 4 -6 1 -13 -6 -16 -7 -3 -13 3 -13 13 0 10 4 16 8 14 4 -3 8 -1 8
5 0 5 -4 12 -9 15 -4 3 -6 18 -4 33 2 16 4 36 4 46 0 10 9 23 20 30 23 14 25
24 4 24 -8 0 -12 -4 -10 -8 3 -4 -1 -9 -8 -12 -7 -3 -13 3 -13 13 0 10 4 16 8
14 4 -3 8 0 8 6 0 6 6 8 13 4 7 -4 9 -3 4 2 -5 5 -14 9 -20 9 -14 0 -16 54 -3
77 5 9 16 14 25 10 17 -6 16 -4 -13 18 -11 8 -17 10 -13 3 4 -6 4 -14 -1 -16
-4 -3 -7 24 -7 59 0 35 3 64 8 64 4 0 5 6 0 13 -4 6 -9 19 -11 27 -1 8 -4 20
-5 27 -2 7 -6 15 -9 19 -4 3 -4 12 -1 20 3 8 -1 14 -8 14 -7 0 -9 3 -6 7 4 3
1 13 -6 21 -10 13 -9 14 3 7 9 -5 7 0 -5 14 -17 19 -17 25 -5 44 12 19 11 21
-2 9 -12 -10 -17 -10 -27 1 -6 8 -8 17 -4 21 4 4 -5 18 -21 32 -15 15 -25 32
-22 41 3 8 1 11 -4 8 -6 -3 -10 -1 -10 4 0 6 -6 10 -12 8 -7 -1 -13 6 -13 15
0 9 -4 20 -9 25 -5 4 -6 3 -2 -4 14 -24 -9 -12 -34 17 -13 17 -30 30 -37 30
-7 0 -13 5 -13 10 0 6 -7 10 -16 10 -10 0 -14 6 -11 15 4 8 1 17 -5 21 -6 4
-8 3 -4 -4 3 -6 2 -13 -4 -17 -6 -3 -13 1 -16 9 -3 9 -10 13 -15 10 -5 -3 -9
-1 -9 5 0 6 -7 8 -15 5 -8 -4 -15 -1 -15 5 0 6 -3 10 -7 10 -5 -1 -11 0 -15 1
-5 1 -12 4 -18 5 -5 1 -11 3 -12 5 -4 2 -40 10 -60 12 -10 1 -18 5 -18 8 0 4
-29 6 -65 5 -45 -2 -62 1 -58 9 5 8 2 7 -8 0 -21 -17 -147 -12 -160 6 -9 13
-10 12 -5 -2 3 -12 0 -18 -9 -18 -8 0 -19 8 -25 18 -9 13 -10 13 -7 1 4 -13
-5 -16 -50 -16 -30 0 -49 3 -43 7 8 5 7 9 -4 13 -9 4 -15 1 -13 -5 4 -17 -32
-17 -44 0 -8 14 -10 14 -6 1 4 -12 -5 -15 -49 -16 -30 0 -51 3 -49 7 3 5 1 12
-5 15 -6 4 -9 1 -8 -5 5 -19 -31 -20 -43 -2 -10 16 -10 15 -5 0 6 -21 -4 -23
-23 -5 -11 10 -13 10 -7 0 5 -9 0 -13 -15 -13 -19 0 -20 2 -8 18 13 15 12 16
-4 3 -10 -8 -34 -16 -53 -18 -27 -3 -34 0 -35 14 0 15 -2 15 -7 3 -9 -20 -28
-22 -42 -5 -7 8 -17 15 -23 15 -6 0 -2 -7 9 -15 15 -11 16 -14 4 -15 -9 0 -22
6 -29 13 -8 6 -11 7 -8 1 4 -7 -10 -11 -42 -11 -40 1 -48 4 -44 16 3 11 1 10
-7 -2 -10 -15 -14 -16 -28 -5 -12 10 -14 10 -8 1 5 -9 0 -13 -15 -13 -19 0
-20 2 -8 18 12 16 12 16 -6 0 -18 -17 -20 -17 -44 5 l-26 22 19 -22z m-2667
-713 c-1 -11 -7 -22 -14 -25 -10 -3 -11 0 -3 15 12 23 13 33 2 26 -5 -3 -9 1
-9 9 0 11 4 12 13 4 7 -6 12 -19 11 -29z m-10 -255 c0 -8 -4 -12 -9 -9 -4 3
-8 9 -8 15 0 5 4 9 8 9 5 0 9 -7 9 -15z m13 -35 c0 -5 -7 -7 -15 -4 -8 4 -15
8 -15 10 0 2 7 4 15 4 8 0 15 -4 15 -10z m-5 -80 c-3 -5 -12 -10 -18 -10 -7 0
-6 4 3 10 19 12 23 12 15 0z m1 -79 c0 -11 -5 -17 -13 -14 -10 4 -11 9 -2 19
15 18 15 18 15 -5z m0 -80 c0 -11 -5 -17 -13 -14 -17 6 -17 20 0 26 6 3 12 6
12 6 1 1 1 -7 1 -18z m-6 -35 c0 -3 -4 -8 -10 -11 -5 -3 -10 -1 -10 4 0 6 5
11 10 11 6 0 10 -2 10 -4z m10 -68 c0 -4 -6 -8 -14 -8 -8 0 -17 4 -20 8 -2 4
4 8 15 8 10 0 19 -4 19 -8z m-5 -28 c-3 -5 -12 -10 -18 -10 -7 0 -6 4 3 10 19
12 23 12 15 0z m0 -30 c-3 -5 -12 -10 -18 -10 -7 0 -6 4 3 10 19 12 23 12 15
0z m1 -79 c0 -11 -5 -17 -13 -14 -10 4 -11 9 -2 19 15 18 15 18 15 -5z m-2
-446 c-4 -8 -11 -15 -16 -15 -6 0 -5 6 2 15 7 8 14 15 16 15 2 0 1 -7 -2 -15z
m3 -51 c-3 -3 -12 -4 -19 -1 -8 3 -5 6 6 6 11 1 17 -2 13 -5z m-2 -224 c-3 -5
-12 -10 -18 -10 -7 0 -6 4 3 10 19 12 23 12 15 0z m1 -79 c0 -11 -5 -17 -13
-14 -10 4 -11 9 -2 19 15 18 15 18 15 -5z m-3 -128 c-3 -7 -8 -13 -12 -13 -4
0 -8 6 -8 13 0 8 6 14 13 14 7 0 10 -6 7 -14z m1 -44 c-3 -5 -10 -7 -15 -3 -5
3 -7 10 -3 15 3 5 10 7 15 3 5 -3 7 -10 3 -15z m-7 -434 c0 -8 -4 -12 -9 -9
-4 3 -8 9 -8 15 0 5 4 9 8 9 5 0 9 -7 9 -15z m13 -35 c0 -5 -7 -7 -15 -4 -8 4
-15 8 -15 10 0 2 7 4 15 4 8 0 15 -4 15 -10z m-5 -80 c-3 -5 -12 -10 -18 -10
-7 0 -6 4 3 10 19 12 23 12 15 0z m1 -79 c0 -11 -5 -17 -13 -14 -10 4 -11 9
-2 19 15 18 15 18 15 -5z m0 -80 c0 -11 -5 -17 -13 -14 -17 6 -17 20 0 26 6 3
12 6 12 6 1 1 1 -7 1 -18z m-6 -35 c0 -3 -4 -8 -10 -11 -5 -3 -10 -1 -10 4 0
6 5 11 10 11 6 0 10 -2 10 -4z m10 -68 c0 -4 -6 -8 -14 -8 -8 0 -17 4 -20 8
-2 4 4 8 15 8 10 0 19 -4 19 -8z m-5 -28 c-3 -5 -12 -10 -18 -10 -7 0 -6 4 3
10 19 12 23 12 15 0z m0 -30 c-3 -5 -12 -10 -18 -10 -7 0 -6 4 3 10 19 12 23
12 15 0z m1 -79 c0 -11 -5 -17 -13 -14 -10 4 -11 9 -2 19 15 18 15 18 15 -5z
m-26 -211 c0 -5 -2 -10 -4 -10 -3 0 -8 5 -11 10 -3 6 -1 10 4 10 6 0 11 -4 11
-10z m30 -111 c0 -4 -6 -9 -13 -12 -8 -3 -14 0 -14 7 0 7 6 13 14 13 7 0 13
-4 13 -8z m70 -270 c0 -5 -4 -7 -10 -4 -5 3 -10 1 -10 -4 0 -6 4 -11 9 -11 5
0 11 -7 14 -14 4 -10 1 -13 -8 -10 -16 7 -27 32 -19 45 7 12 24 11 24 -2z m55
-89 c-5 -9 6 -14 26 -12 3 1 5 -10 3 -23 -1 -14 2 -27 7 -31 5 -3 9 0 9 5 0
25 16 8 18 -19 1 -16 -2 -30 -8 -30 -5 0 -10 4 -10 10 0 5 -15 27 -34 47 -31
35 -37 63 -15 63 6 0 7 -4 4 -10z m3969 -82 c-9 -14 -23 2 -17 18 4 12 8 13
14 3 4 -7 5 -17 3 -21z m-3859 -38 c-3 -5 -2 -10 4 -10 5 0 11 3 14 8 2 4 3 2
1 -4 -4 -20 17 -34 37 -23 15 8 17 6 12 -8 -6 -16 -5 -17 13 -3 15 11 16 11 7
0 -19 -21 -16 -35 4 -19 11 10 14 10 9 2 -11 -19 5 -16 21 5 10 12 9 7 -2 -16
l-16 -33 -39 31 c-22 18 -40 28 -40 23 -1 -4 -9 3 -20 16 -17 20 -19 41 -4 41
3 0 2 -4 -1 -10z m3632 -66 c-3 -3 -12 -4 -19 -1 -8 3 -5 6 6 6 11 1 17 -2 13
-5z m-2684 -29 c-3 -9 -8 -14 -10 -11 -3 3 -2 9 2 15 9 16 15 13 8 -4z m1367
-6 c0 -5 -4 -9 -8 -9 -5 0 -9 7 -9 15 0 8 4 12 9 9 4 -3 8 -9 8 -15z m553 6
c-3 -9 -8 -14 -10 -11 -3 3 -2 9 2 15 9 16 15 13 8 -4z m-2590 -13 c-4 -10 -8
-11 -13 -2 -5 8 -10 9 -14 2 -4 -6 2 -16 11 -22 14 -9 15 -10 2 -7 -9 3 -22 0
-28 -6 -8 -8 -9 -4 -6 13 5 25 17 37 39 37 8 0 12 -7 9 -15z m117 8 c0 -5 -4
-10 -10 -10 -5 0 -10 5 -10 10 0 6 5 10 10 10 6 0 10 -4 10 -10z m330 -5 c0
-2 -6 -5 -13 -8 -8 -3 -14 1 -14 8 0 7 6 11 14 8 7 -3 13 -6 13 -8z m125 5
c-3 -5 -1 -10 5 -10 6 0 8 -4 5 -10 -3 -5 -2 -10 4 -10 5 0 9 -9 8 -19 -1 -15
-4 -17 -14 -9 -8 6 -11 13 -9 16 3 2 1 12 -4 22 -5 10 -6 20 -3 24 10 9 15 7
8 -4z m995 -5 c0 -2 -6 -5 -13 -8 -8 -3 -14 1 -14 8 0 7 6 11 14 8 7 -3 13 -6
13 -8z m426 -13 c1 -18 -4 -29 -12 -29 -9 0 -10 5 -3 19 5 10 7 18 4 18 -4 0
-3 5 0 10 9 15 10 13 11 -18z m374 13 c0 -2 -6 -5 -13 -8 -8 -3 -14 1 -14 8 0
7 6 11 14 8 7 -3 13 -6 13 -8z m125 5 c-3 -5 -1 -10 5 -10 6 0 8 -4 5 -10 -3
-5 -2 -10 4 -10 5 0 9 -9 8 -19 -1 -15 -4 -17 -14 -9 -8 6 -11 13 -9 16 3 2 1
12 -4 22 -5 10 -6 20 -3 24 10 9 15 7 8 -4z m-2258 -30 c-5 -30 -14 -34 -26
-11 -10 18 -9 20 6 14 13 -5 15 -3 10 11 -4 10 -3 15 3 11 5 -3 8 -15 7 -25z
m258 18 c5 4 5 1 1 -5 -4 -7 -4 -13 1 -14 4 0 16 -2 26 -4 9 -2 17 2 17 8 0 8
3 8 11 0 14 -14 2 -36 -14 -26 -17 11 -39 13 -51 5 -19 -11 -35 -10 -46 3 -8
9 -7 14 4 18 11 4 13 1 9 -11 -6 -15 -5 -15 10 -3 14 11 15 17 5 30 -11 14
-11 14 3 4 9 -7 20 -9 24 -5z m40 2 c-3 -5 -12 -10 -18 -10 -7 0 -6 4 3 10 19
12 23 12 15 0z m188 -3 c7 3 9 3 5 -2 -4 -4 -1 -14 7 -21 18 -18 29 -18 22 1
-4 8 -1 17 5 21 7 4 8 3 4 -4 -4 -7 -2 -12 3 -12 6 0 11 5 11 11 0 5 5 7 12 3
9 -6 9 -9 0 -12 -7 -2 -10 -8 -6 -13 3 -5 2 -8 -3 -7 -4 1 -19 -4 -33 -11 -14
-8 -22 -10 -18 -6 4 5 3 14 -3 22 -9 10 -15 11 -28 1 -13 -10 -14 -10 -4 1 6
7 10 19 9 25 -2 6 -1 8 1 3 3 -4 10 -4 16 0z m160 0 c7 3 9 3 5 -2 -4 -4 -1
-14 7 -21 18 -18 29 -18 22 1 -4 8 -1 17 5 21 7 4 8 3 4 -4 -4 -7 -2 -12 3
-12 6 0 11 5 11 11 0 5 5 7 12 3 9 -6 9 -9 0 -12 -7 -2 -10 -8 -6 -13 3 -5 2
-8 -3 -7 -4 1 -19 -4 -33 -11 -14 -8 -22 -10 -18 -6 4 5 3 14 -3 22 -9 10 -15
11 -28 1 -13 -10 -14 -10 -4 1 6 7 10 19 9 25 -2 6 -1 8 1 3 3 -4 10 -4 16 0z
m124 7 c-3 -3 -12 -4 -19 -1 -8 3 -5 6 6 6 11 1 17 -2 13 -5z m29 -26 c-1 -12
-10 -22 -19 -24 -10 -1 -14 3 -10 12 3 8 10 14 15 14 6 0 7 7 4 16 -3 8 -2 12
4 9 5 -3 8 -16 6 -27z m92 24 c15 11 15 11 4 -3 -10 -14 -10 -18 3 -22 8 -4
14 -2 12 2 -1 5 1 9 6 10 4 1 7 -1 7 -4 0 -3 0 -10 0 -15 0 -6 -8 -10 -17 -8
-20 3 -43 27 -42 43 0 6 3 4 6 -3 4 -10 8 -10 21 0z m197 0 c-9 -6 -11 -16 -6
-38 0 -3 8 2 17 10 8 9 12 21 8 27 -4 8 -3 9 4 5 7 -4 10 -17 8 -29 -4 -28
-53 -32 -67 -6 -8 15 -6 17 6 13 9 -4 15 -3 14 2 -3 17 1 24 14 24 8 0 8 -3 2
-8z m123 0 c15 12 16 11 3 -4 -8 -11 -9 -18 -3 -18 6 0 14 5 17 10 5 8 11 7
21 -1 21 -18 17 -26 -13 -25 -27 1 -53 21 -52 41 0 6 3 4 6 -3 4 -10 8 -10 21
0z m165 -5 c4 3 7 1 7 -5 0 -7 -4 -12 -10 -12 -5 0 -9 -5 -7 -11 3 -16 -30
-19 -43 -4 -8 9 -7 14 4 18 11 4 13 1 9 -11 -6 -15 -5 -15 10 -3 14 11 15 17
5 30 -11 14 -11 14 3 4 9 -7 19 -10 22 -6z m70 0 c7 3 9 3 5 -2 -4 -4 -1 -14
7 -21 18 -18 29 -18 22 1 -4 8 -1 17 5 21 7 4 8 3 4 -4 -4 -7 -2 -12 3 -12 6
0 11 5 11 11 0 5 5 7 12 3 9 -6 9 -9 0 -12 -7 -2 -10 -8 -6 -13 3 -5 2 -8 -3
-7 -4 1 -19 -4 -33 -11 -14 -8 -22 -10 -18 -6 4 5 3 14 -3 22 -9 10 -15 11
-28 1 -13 -10 -14 -10 -4 1 6 7 10 19 9 25 -2 6 -1 8 1 3 3 -4 10 -4 16 0z
m160 0 c7 3 9 3 5 -2 -4 -4 -1 -14 7 -21 18 -18 29 -18 22 1 -4 8 -1 17 5 21
7 4 8 3 4 -4 -4 -7 -2 -12 3 -12 6 0 11 5 11 11 0 5 5 7 12 3 9 -6 9 -9 0 -12
-7 -2 -10 -8 -6 -13 3 -5 2 -8 -3 -7 -4 1 -19 -4 -33 -11 -14 -8 -22 -10 -18
-6 4 5 3 14 -3 22 -9 10 -15 11 -28 1 -13 -10 -14 -10 -4 1 6 7 10 19 9 25 -2
6 -1 8 1 3 3 -4 10 -4 16 0z m313 -19 c-3 -24 -26 -31 -47 -16 -12 8 -11 9 1
5 19 -5 43 19 34 34 -4 8 -3 9 4 5 7 -4 10 -17 8 -28z m92 24 c15 12 16 11 3
-4 -8 -11 -9 -18 -3 -18 6 0 14 5 17 10 5 8 11 7 21 -1 21 -18 17 -26 -13 -25
-27 1 -53 21 -52 41 0 6 3 4 6 -3 4 -10 8 -10 21 0z m167 -4 c5 4 5 1 1 -5 -4
-7 -4 -13 1 -14 4 0 16 -2 26 -4 9 -2 17 2 17 8 0 8 3 8 11 0 14 -14 2 -36
-14 -26 -17 11 -39 13 -51 5 -19 -11 -35 -10 -46 3 -8 9 -7 14 4 18 11 4 13 1
9 -11 -6 -15 -5 -15 10 -3 14 11 15 17 5 30 -11 14 -11 14 3 4 9 -7 20 -9 24
-5z m40 2 c-3 -5 -12 -10 -18 -10 -7 0 -6 4 3 10 19 12 23 12 15 0z m188 -3
c7 3 9 3 5 -2 -4 -4 -1 -14 7 -21 18 -18 29 -18 22 1 -4 8 -1 17 5 21 7 4 8 3
4 -4 -4 -7 -2 -12 3 -12 6 0 11 5 11 11 0 5 5 7 12 3 9 -6 9 -9 0 -12 -7 -2
-10 -8 -6 -13 3 -5 2 -8 -3 -7 -4 1 -19 -4 -33 -11 -14 -8 -22 -10 -18 -6 4 5
3 14 -3 22 -9 10 -15 11 -28 1 -13 -10 -14 -10 -4 1 6 7 10 19 9 25 -2 6 -1 8
1 3 3 -4 10 -4 16 0z m160 0 c7 3 9 3 5 -2 -4 -4 -1 -14 7 -21 18 -18 29 -18
22 1 -4 8 -1 17 5 21 7 4 8 3 4 -4 -4 -7 -2 -12 3 -12 6 0 11 5 11 11 0 5 5 7
12 3 9 -6 9 -9 0 -12 -7 -2 -10 -8 -6 -13 3 -5 2 -8 -3 -7 -4 1 -19 -4 -33
-11 -14 -8 -22 -10 -18 -6 4 5 3 14 -3 22 -9 10 -15 11 -28 1 -13 -10 -14 -10
-4 1 6 7 10 19 9 25 -2 6 -1 8 1 3 3 -4 10 -4 16 0z m124 7 c-3 -3 -12 -4 -19
-1 -8 3 -5 6 6 6 11 1 17 -2 13 -5z m48 -6 c5 4 4 1 0 -7 -6 -11 -4 -13 8 -8
10 3 17 2 17 -2 0 -21 -27 -16 -45 8 -11 16 -13 21 -4 14 9 -7 20 -9 24 -5z
m72 -7 c-10 -12 -9 -14 5 -8 10 3 22 -1 29 -11 8 -9 9 -14 5 -10 -5 4 -15 3
-22 -3 -10 -8 -16 -3 -28 18 -13 27 -13 29 4 29 15 0 17 -3 7 -15z m-2644 -6
c-3 -9 -8 -14 -10 -11 -3 3 -2 9 2 15 9 16 15 13 8 -4z m1120 0 c-3 -9 -8 -14
-10 -11 -3 3 -2 9 2 15 9 16 15 13 8 -4z m552 5 c-3 -5 -11 -10 -16 -10 -6 0
-7 5 -4 10 3 6 11 10 16 10 6 0 7 -4 4 -10z m248 -5 c-3 -9 -8 -14 -10 -11 -3
3 -2 9 2 15 9 16 15 13 8 -4z m-2003 -29 c0 -11 -19 -15 -25 -6 -3 5 1 10 9
10 9 0 16 -2 16 -4z"/>
<path d="M545 610 c21 -24 26 -25 19 -6 -3 8 -13 17 -22 21 -13 5 -13 2 3 -15z"/>
<path d="M2395 390 c-3 -5 -1 -10 4 -10 6 0 11 5 11 10 0 6 -2 10 -4 10 -3 0
-8 -4 -11 -10z"/>
<path d="M3195 390 c-3 -5 -1 -10 4 -10 6 0 11 5 11 10 0 6 -2 10 -4 10 -3 0
-8 -4 -11 -10z"/>
<path d="M1275 4720 c-3 -5 -1 -10 4 -10 6 0 11 5 11 10 0 6 -2 10 -4 10 -3 0
-8 -4 -11 -10z"/>
<path d="M2075 4720 c-3 -5 -1 -10 4 -10 6 0 11 5 11 10 0 6 -2 10 -4 10 -3 0
-8 -4 -11 -10z"/>
<path d="M4673 4345 c0 -8 4 -12 9 -9 5 3 6 10 3 15 -9 13 -12 11 -12 -6z"/>
<path d="M4675 4311 c-3 -5 -2 -12 3 -15 5 -3 9 1 9 9 0 17 -3 19 -12 6z"/>
<path d="M407 4279 c7 -7 15 -10 18 -7 3 3 -2 9 -12 12 -14 6 -15 5 -6 -5z"/>
<path d="M4692 4265 c4 -4 3 -14 -2 -20 -7 -9 -5 -17 7 -26 16 -12 17 -12 6 2
-9 11 -9 19 -2 26 8 8 7 13 -3 18 -7 5 -10 5 -6 0z"/>
<path d="M380 4180 c-8 -5 -10 -10 -5 -10 6 0 17 5 25 10 8 5 11 10 5 10 -5 0
-17 -5 -25 -10z"/>
<path d="M391 4151 c-11 -19 -5 -31 13 -31 6 0 4 5 -4 10 -8 5 -10 10 -4 10 6
0 11 7 11 15 0 20 -4 19 -16 -4z"/>
<path d="M4703 4158 c-10 -17 -11 -78 -1 -72 4 3 8 0 8 -7 0 -7 3 -9 6 -6 4 4
1 13 -6 22 -10 12 -9 15 6 16 15 0 16 2 4 7 -17 8 -19 20 -7 40 5 6 6 12 3 12
-3 0 -8 -6 -13 -12z"/>
<path d="M376 4094 c-5 -13 -4 -14 7 -6 8 7 18 8 22 4 5 -4 5 -1 1 6 -10 17
-23 15 -30 -4z"/>
<path d="M380 4070 c-8 -5 -10 -10 -5 -10 6 0 17 5 25 10 8 5 11 10 5 10 -5 0
-17 -5 -25 -10z"/>
<path d="M4710 4019 c0 -5 -4 -8 -8 -5 -4 2 -8 -8 -7 -23 0 -22 4 -27 18 -23
17 4 17 5 0 18 -17 12 -17 13 0 19 18 8 24 25 7 25 -5 0 -10 -5 -10 -11z"/>
<path d="M365 3999 c-4 -6 -5 -12 -2 -15 2 -3 7 2 10 11 7 17 1 20 -8 4z"/>
<path d="M370 3960 c0 -5 5 -10 10 -10 6 0 10 5 10 10 0 6 -4 10 -10 10 -5 0
-10 -4 -10 -10z"/>
<path d="M353 3904 c4 -4 1 -14 -6 -23 -11 -14 -10 -15 8 -1 11 8 21 15 23 16
2 1 -5 5 -15 8 -9 4 -14 4 -10 0z"/>
<path d="M4706 3882 c-3 -5 1 -9 9 -9 8 0 12 4 9 9 -3 4 -7 8 -9 8 -2 0 -6 -4
-9 -8z"/>
<path d="M363 3835 l-28 -26 30 18 c16 10 31 17 33 15 2 -2 6 -1 8 1 3 3 1 8
-5 11 -5 4 -22 -5 -38 -19z"/>
<path d="M4704 3848 c-15 -23 -11 -48 10 -65 15 -13 17 -14 9 -2 -10 12 -10
18 0 29 9 10 9 11 -1 5 -16 -8 -13 26 3 37 6 5 6 8 -2 8 -6 0 -15 -6 -19 -12z"/>
<path d="M330 3739 c0 -5 5 -7 10 -4 6 3 10 8 10 11 0 2 -4 4 -10 4 -5 0 -10
-5 -10 -11z"/>
<path d="M368 3708 c9 -9 9 -15 -1 -27 -11 -14 -10 -14 6 -2 13 10 15 17 6 27
-6 8 -14 14 -17 14 -3 0 -1 -5 6 -12z"/>
<path d="M355 3420 c3 -5 8 -10 11 -10 2 0 4 5 4 10 0 6 -5 10 -11 10 -5 0 -7
-4 -4 -10z"/>
<path d="M355 3360 c3 -5 8 -10 11 -10 2 0 4 5 4 10 0 6 -5 10 -11 10 -5 0 -7
-4 -4 -10z"/>
<path d="M4701 3341 c-8 -14 -6 -22 12 -37 12 -10 16 -12 10 -4 -10 11 -10 17
0 29 10 12 9 13 -2 6 -11 -6 -13 -4 -8 8 9 23 0 21 -12 -2z"/>
<path d="M4704 3208 c-15 -23 -11 -48 10 -65 15 -13 17 -14 9 -2 -10 12 -10
18 0 29 9 10 9 11 -1 5 -16 -8 -13 26 3 37 6 5 6 8 -2 8 -6 0 -15 -6 -19 -12z"/>
<path d="M380 3140 c-9 -6 -10 -10 -3 -10 6 0 15 5 18 10 8 12 4 12 -15 0z"/>
<path d="M385 3052 c-5 -4 -11 -20 -12 -35 -2 -23 1 -28 15 -23 14 5 13 3 -2
-9 -11 -8 -15 -15 -10 -15 12 0 34 21 34 33 0 5 -7 6 -16 3 -10 -4 -13 -2 -7
6 5 10 13 49 9 48 -1 0 -5 -4 -11 -8z"/>
<path d="M336 3042 c-3 -5 1 -9 9 -9 8 0 12 4 9 9 -3 4 -7 8 -9 8 -2 0 -6 -4
-9 -8z"/>
<path d="M346 2778 c3 -5 10 -6 15 -3 13 9 11 12 -6 12 -8 0 -12 -4 -9 -9z"/>
<path d="M4701 2701 c-8 -14 -6 -22 12 -37 12 -10 16 -12 10 -4 -10 11 -10 17
0 29 10 12 9 13 -2 6 -11 -6 -13 -4 -8 8 9 23 0 21 -12 -2z"/>
<path d="M354 2688 l-19 -23 23 19 c21 18 27 26 19 26 -2 0 -12 -10 -23 -22z"/>
<path d="M330 2646 c0 -2 7 -7 16 -10 8 -3 12 -2 9 4 -6 10 -25 14 -25 6z"/>
<path d="M338 2591 c-12 -14 -11 -14 4 -3 12 10 22 11 36 3 13 -7 19 -7 19 2
0 18 -45 17 -59 -2z"/>
<path d="M361 2571 c-8 -5 -9 -11 -3 -15 5 -3 12 1 16 9 6 17 6 18 -13 6z"/>
<path d="M4704 2568 c-15 -23 -11 -48 10 -65 15 -13 17 -14 9 -2 -10 12 -10
18 0 29 9 10 9 11 -1 5 -16 -8 -13 26 3 37 6 5 6 8 -2 8 -6 0 -15 -6 -19 -12z"/>
<path d="M380 2180 c-9 -6 -10 -10 -3 -10 6 0 15 5 18 10 8 12 4 12 -15 0z"/>
<path d="M385 2092 c-5 -4 -11 -20 -12 -35 -2 -23 1 -28 15 -23 14 5 13 3 -2
-9 -11 -8 -15 -15 -10 -15 12 0 34 21 34 33 0 5 -7 6 -16 3 -10 -4 -13 -2 -7
6 5 10 13 49 9 48 -1 0 -5 -4 -11 -8z"/>
<path d="M336 2082 c-3 -5 1 -9 9 -9 8 0 12 4 9 9 -3 4 -7 8 -9 8 -2 0 -6 -4
-9 -8z"/>
<path d="M4701 2061 c-8 -14 -6 -22 12 -37 12 -10 16 -12 10 -4 -10 11 -10 17
0 29 10 12 9 13 -2 6 -11 -6 -13 -4 -8 8 9 23 0 21 -12 -2z"/>
<path d="M363 1915 l-28 -26 30 18 c16 10 31 17 33 15 2 -2 6 -1 8 1 3 3 1 8
-5 11 -5 4 -22 -5 -38 -19z"/>
<path d="M4704 1928 c-15 -23 -11 -48 10 -65 15 -13 17 -14 9 -2 -10 12 -10
18 0 29 9 10 9 11 -1 5 -16 -8 -13 26 3 37 6 5 6 8 -2 8 -6 0 -15 -6 -19 -12z"/>
<path d="M330 1819 c0 -5 5 -7 10 -4 6 3 10 8 10 11 0 2 -4 4 -10 4 -5 0 -10
-5 -10 -11z"/>
<path d="M368 1788 c9 -9 9 -15 -1 -27 -11 -14 -10 -14 6 -2 13 10 15 17 6 27
-6 8 -14 14 -17 14 -3 0 -1 -5 6 -12z"/>
<path d="M355 1500 c3 -5 8 -10 11 -10 2 0 4 5 4 10 0 6 -5 10 -11 10 -5 0 -7
-4 -4 -10z"/>
<path d="M355 1440 c3 -5 8 -10 11 -10 2 0 4 5 4 10 0 6 -5 10 -11 10 -5 0 -7
-4 -4 -10z"/>
<path d="M4701 1421 c-8 -14 -6 -22 12 -37 12 -10 16 -12 10 -4 -10 11 -10 17
0 29 10 12 9 13 -2 6 -11 -6 -13 -4 -8 8 9 23 0 21 -12 -2z"/>
<path d="M4704 1288 c-16 -25 -11 -45 8 -40 17 4 17 5 2 17 -16 11 -16 13 2
23 10 6 14 12 7 12 -6 0 -15 -6 -19 -12z"/>
<path d="M4730 1280 c-9 -6 -10 -10 -3 -10 6 0 15 5 18 10 8 12 4 12 -15 0z"/>
<path d="M380 1220 c-9 -6 -10 -10 -3 -10 6 0 15 5 18 10 8 12 4 12 -15 0z"/>
<path d="M4705 1200 c3 -6 1 -10 -6 -10 -8 0 -9 -3 0 -13 6 -8 7 -18 3 -22 -4
-5 -1 -5 6 -1 7 4 9 12 6 18 -4 6 -1 14 6 18 8 5 7 9 -5 13 -9 4 -13 3 -10 -3z"/>
<path d="M354 1164 c-18 -14 -18 -15 4 -4 12 6 22 13 22 15 0 8 -5 6 -26 -11z"/>
<path d="M4700 1070 c-12 -7 -10 -9 7 -7 12 0 19 5 17 9 -6 10 -6 10 -24 -2z"/>
<path d="M380 1060 c-9 -6 -10 -10 -3 -10 6 0 15 5 18 10 8 12 4 12 -15 0z"/>
<path d="M344 1039 c-4 -7 -3 -9 4 -5 5 3 13 0 15 -6 4 -9 6 -10 6 -1 1 17
-16 25 -25 12z"/>
<path d="M4715 1040 c3 -5 8 -10 11 -10 2 0 4 5 4 10 0 6 -5 10 -11 10 -5 0
-7 -4 -4 -10z"/>
<path d="M356 909 c13 -14 20 -16 35 -6 10 6 16 13 14 16 -3 2 -11 -2 -20 -9
-13 -11 -19 -8 -17 11 1 3 -6 6 -14 6 -12 0 -11 -3 2 -18z"/>
<path d="M394 818 c-4 -7 -4 -10 1 -6 4 4 17 2 29 -4 19 -10 20 -10 7 5 -16
20 -27 21 -37 5z"/>
<path d="M4659 809 c-8 -5 -10 -9 -5 -9 5 0 1 -9 -8 -19 -11 -12 -15 -25 -10
-33 5 -7 9 -19 10 -26 2 -8 6 -17 10 -20 4 -4 4 1 1 11 -4 10 -1 17 6 17 9 0
9 2 0 8 -10 7 -10 12 1 27 8 11 12 25 9 32 -4 9 0 11 11 7 9 -3 16 -4 16 -1 0
10 -27 15 -41 6z m-1 -39 c-7 -10 -14 -17 -17 -15 -4 4 18 35 25 35 2 0 -1 -9
-8 -20z"/>
<path d="M396 767 c3 -10 9 -15 12 -12 3 3 0 11 -7 18 -10 9 -11 8 -5 -6z"/>
<path d="M443 682 c10 -10 14 -22 10 -27 -5 -4 -2 -5 5 -1 11 6 10 12 -4 27
-9 10 -19 19 -22 19 -3 0 2 -8 11 -18z"/>
<path d="M4586 661 c-3 -5 0 -14 7 -19 10 -8 13 -6 14 9 2 19 -11 26 -21 10z"/>
<path d="M4475 530 c3 -5 8 -10 11 -10 2 0 4 5 4 10 0 6 -5 10 -11 10 -5 0 -7
-4 -4 -10z"/>
<path d="M4325 440 c-4 -6 -11 -8 -16 -5 -5 4 -12 -1 -15 -9 -3 -9 -10 -14
-14 -11 -5 3 -11 1 -15 -4 -3 -6 -12 -8 -20 -4 -9 3 -15 -1 -15 -8 0 -11 -2
-11 -10 1 -5 8 -11 12 -14 10 -2 -3 4 -15 14 -28 11 -13 21 -18 25 -12 3 5 1
10 -5 10 -6 0 -9 4 -5 10 3 5 12 7 20 4 8 -4 13 -9 10 -13 -2 -4 2 -8 10 -8 8
0 15 4 15 9 0 4 -4 8 -10 8 -5 0 -10 5 -10 10 0 12 22 9 32 -5 4 -6 8 -2 8 8
0 9 3 16 8 15 14 -3 42 14 36 23 -7 12 -21 11 -29 -1z"/>
<path d="M4352 411 c-11 -7 -11 -9 0 -14 9 -3 15 1 15 9 0 8 -1 14 -1 14 -1 0
-7 -4 -14 -9z"/>
<path d="M1275 390 c-3 -5 -1 -10 4 -10 6 0 11 5 11 10 0 6 -2 10 -4 10 -3 0
-8 -4 -11 -10z"/>
<path d="M954 376 c-10 -8 -16 -18 -11 -22 4 -4 7 -2 7 4 0 7 7 12 16 12 9 0
12 -5 8 -12 -4 -7 -3 -10 1 -5 5 4 16 0 26 -9 13 -12 19 -12 25 -3 4 7 -2 20
-16 31 -27 22 -31 22 -56 4z m66 -26 c0 -15 -5 -12 -26 11 -19 22 -19 22 4 10
12 -6 22 -16 22 -21z"/>
<path d="M1186 374 c-8 -21 -8 -24 5 -24 5 0 8 4 5 9 -4 5 -1 11 6 13 8 3 9 6
1 11 -6 4 -14 0 -17 -9z"/>
<path d="M1743 378 c-4 -7 -8 -19 -9 -26 -2 -11 0 -11 14 0 13 11 15 11 10 -3
-4 -9 -1 -16 7 -16 11 0 12 5 2 21 -6 12 -10 24 -9 29 3 11 -6 8 -15 -5z"/>
<path d="M1986 374 c-8 -21 -8 -24 5 -24 5 0 8 4 5 9 -4 5 -1 11 6 13 8 3 9 6
1 11 -6 4 -14 0 -17 -9z"/>
<path d="M2306 374 c-8 -21 -8 -24 5 -24 5 0 8 4 5 9 -4 5 -1 11 6 13 8 3 9 6
1 11 -6 4 -14 0 -17 -9z"/>
<path d="M2703 378 c-4 -7 -8 -19 -9 -26 -2 -11 0 -11 14 0 13 11 15 11 10 -3
-4 -9 -1 -16 7 -16 11 0 12 5 2 21 -6 12 -10 24 -9 29 3 11 -6 8 -15 -5z"/>
<path d="M3106 374 c-8 -21 -8 -24 5 -24 5 0 8 4 5 9 -4 5 -1 11 6 13 8 3 9 6
1 11 -6 4 -14 0 -17 -9z"/>
<path d="M3663 378 c-4 -7 -8 -19 -9 -26 -2 -11 0 -11 14 0 13 11 15 11 10 -3
-4 -9 -1 -16 7 -16 11 0 12 5 2 21 -6 12 -10 24 -9 29 3 11 -6 8 -15 -5z"/>
<path d="M3824 378 c-13 -21 -15 -43 -2 -30 6 6 17 8 24 5 18 -7 18 11 0 26
-11 9 -16 9 -22 -1z m20 -6 c3 -5 -1 -9 -9 -9 -8 0 -12 4 -9 9 3 4 7 8 9 8 2
0 6 -4 9 -8z"/>
<path d="M2193 355 c0 -8 4 -12 9 -9 5 3 6 10 3 15 -9 13 -12 11 -12 -6z"/>
<path d="M3873 355 c0 -8 4 -12 9 -9 5 3 6 10 3 15 -9 13 -12 11 -12 -6z"/>
<path d="M915 350 c-3 -5 -1 -10 4 -10 6 0 11 5 11 10 0 6 -2 10 -4 10 -3 0
-8 -4 -11 -10z"/>
<path d="M1340 350 c8 -5 20 -10 25 -10 6 0 3 5 -5 10 -8 5 -19 10 -25 10 -5
0 -3 -5 5 -10z"/>
<path d="M2460 350 c8 -5 20 -10 25 -10 6 0 3 5 -5 10 -8 5 -19 10 -25 10 -5
0 -3 -5 5 -10z"/>
<path d="M3260 350 c8 -5 20 -10 25 -10 6 0 3 5 -5 10 -8 5 -19 10 -25 10 -5
0 -3 -5 5 -10z"/>
<path d="M4078 353 c7 -3 16 -2 19 1 4 3 -2 6 -13 5 -11 0 -14 -3 -6 -6z"/>
<path d="M1275 340 c3 -5 8 -10 11 -10 2 0 4 5 4 10 0 6 -5 10 -11 10 -5 0 -7
-4 -4 -10z"/>
<path d="M1416 341 c-3 -5 2 -15 12 -22 15 -12 16 -12 5 2 -7 9 -10 19 -6 22
3 4 4 7 0 7 -3 0 -8 -4 -11 -9z"/>
<path d="M1490 340 c0 -5 5 -10 11 -10 5 0 7 5 4 10 -3 6 -8 10 -11 10 -2 0
-4 -4 -4 -10z"/>
<path d="M1550 340 c0 -5 5 -10 11 -10 5 0 7 5 4 10 -3 6 -8 10 -11 10 -2 0
-4 -4 -4 -10z"/>
<path d="M2395 340 c3 -5 8 -10 11 -10 2 0 4 5 4 10 0 6 -5 10 -11 10 -5 0 -7
-4 -4 -10z"/>
<path d="M2536 341 c-3 -5 2 -15 12 -22 15 -12 16 -12 5 2 -7 9 -10 19 -6 22
3 4 4 7 0 7 -3 0 -8 -4 -11 -9z"/>
<path d="M2990 346 c0 -2 9 -6 20 -9 11 -3 18 -1 14 4 -5 9 -34 13 -34 5z"/>
<path d="M3195 340 c3 -5 8 -10 11 -10 2 0 4 5 4 10 0 6 -5 10 -11 10 -5 0 -7
-4 -4 -10z"/>
<path d="M3336 341 c-3 -5 2 -15 12 -22 15 -12 16 -12 5 2 -7 9 -10 19 -6 22
3 4 4 7 0 7 -3 0 -8 -4 -11 -9z"/>
<path d="M3410 340 c0 -5 5 -10 11 -10 5 0 7 5 4 10 -3 6 -8 10 -11 10 -2 0
-4 -4 -4 -10z"/>
<path d="M3470 340 c0 -5 5 -10 11 -10 5 0 7 5 4 10 -3 6 -8 10 -11 10 -2 0
-4 -4 -4 -10z"/>
<path d="M3936 341 c-4 -5 3 -7 14 -4 23 6 26 13 6 13 -8 0 -17 -4 -20 -9z"/>
<path d="M2153 325 c0 -8 4 -12 9 -9 5 3 6 10 3 15 -9 13 -12 11 -12 -6z"/>
<path d="M3150 337 c0 -2 6 -10 14 -16 11 -9 16 -9 22 1 4 7 4 10 -1 6 -4 -4
-14 -3 -22 3 -7 6 -13 9 -13 6z"/>
<path d="M2476 318 c3 -5 10 -6 15 -3 13 9 11 12 -6 12 -8 0 -12 -4 -9 -9z"/>
</g>
</svg>
