<svg width="11" height="19" viewBox="0 0 11 19" fill="none" xmlns="http://www.w3.org/2000/svg">
<path d="M0.368766 18.3975C0.48488 18.5139 0.622819 18.6062 0.774682 18.6693C0.926545 18.7323 1.08935 18.7647 1.25377 18.7647C1.41819 18.7647 1.58099 18.7323 1.73285 18.6693C1.88471 18.6062 2.02265 18.5139 2.13877 18.3975L10.4488 10.0875C10.5415 9.99496 10.615 9.88507 10.6652 9.7641C10.7154 9.64313 10.7412 9.51344 10.7412 9.38247C10.7412 9.25151 10.7154 9.12182 10.6652 9.00085C10.615 8.87988 10.5415 8.76999 10.4488 8.67747L2.13877 0.367473C1.64877 -0.122527 0.858767 -0.122527 0.368767 0.367473C-0.121233 0.857473 -0.121233 1.64747 0.368767 2.13747L7.60877 9.38747L0.358768 16.6375C-0.121232 17.1175 -0.121234 17.9175 0.368766 18.3975Z" fill="black"/>
</svg>
