<svg width="11" height="19" viewBox="0 0 11 19" fill="none" xmlns="http://www.w3.org/2000/svg">
<path d="M0.368759 18.3975C0.484873 18.5139 0.622812 18.6062 0.774675 18.6693C0.926538 18.7323 1.08934 18.7647 1.25376 18.7647C1.41818 18.7647 1.58098 18.7323 1.73284 18.6693C1.8847 18.6062 2.02264 18.5139 2.13876 18.3975L10.4488 10.0875C10.5415 9.99499 10.615 9.8851 10.6652 9.76413C10.7154 9.64316 10.7412 9.51347 10.7412 9.3825C10.7412 9.25154 10.7154 9.12185 10.6652 9.00088C10.615 8.87991 10.5415 8.77002 10.4488 8.6775L2.13876 0.3675C1.64876 -0.1225 0.85876 -0.1225 0.36876 0.3675C-0.12124 0.8575 -0.12124 1.6475 0.36876 2.1375L7.60876 9.3875L0.358761 16.6375C-0.121239 17.1175 -0.121241 17.9175 0.368759 18.3975Z" fill="white"/>
</svg>
