<?xml version="1.0" encoding="utf-8"?>
<!-- Generator: Adobe Illustrator 26.0.1, SVG Export Plug-In . SVG Version: 6.00 Build 0)  -->
<svg version="1.1" id="Calque_1" xmlns="http://www.w3.org/2000/svg" xmlns:xlink="http://www.w3.org/1999/xlink" x="0px" y="0px"
	 viewBox="0 0 315 315" style="enable-background:new 0 0 315 315;" xml:space="preserve">
<style type="text/css">
	.st0{fill:#FFFFFF;}
</style>
<g>
	<path class="st0" d="M315,143.67c0,57.1,0,114.2,0,171.33c-104.97,0-209.94,0-315,0C0,210.02,0,105.01,0,0
		c50.34,0,100.72,0,151.09,0c-1.22,0.2-2.43,0.51-3.66,0.58c-17.1,0.93-33.48,4.92-49.3,11.37C71.54,22.79,49.6,39.79,32.24,62.54
		c-13.47,17.64-22.59,37.49-27.6,59.13c-1.67,7.2-2.59,14.57-3.83,21.76c1.21,0.42,1.56,0.64,1.91,0.64
		c25.2,0.03,50.39,0.06,75.59-0.05c0.87,0,2.26-1.29,2.53-2.23c4.14-14.35,11.51-26.78,22.5-36.85
		c12.78-11.71,27.93-18.5,45.22-20.36c20.28-2.18,38.58,3.23,54.9,15.06c14.06,10.19,23.42,23.98,28.29,40.65
		c0.93,3.18,2.4,3.91,5.45,3.9c24.2-0.11,48.4-0.05,72.6-0.08C311.53,144.1,313.27,143.82,315,143.67z M313.05,176.92
		c-1.25-0.22-1.73-0.38-2.21-0.38c-24.95-0.02-49.89-0.01-74.84-0.08c-2.55-0.01-2.91,1.48-3.48,3.43
		c-8.53,29.03-26.86,48.61-56.5,55.99c-26.79,6.67-51.15,0.97-72.05-17.57c-11.49-10.2-19.24-22.81-22.93-37.7
		c-0.81-3.28-1.87-4.2-5.07-4.19c-23.45,0.11-46.9,0.06-70.35,0.07c-1.18,0-2.36,0.13-3.57,0.2
		c10.51,81.61,81.17,140.61,163.46,136.78c46.97-2.19,86.42-23.24,115.86-60.78C298.77,230.52,309.17,205.21,313.05,176.92z
		 M156.56,219.3c0.09,0.31,0.19,0.61,0.28,0.92c7.12-1.57,14.49-2.45,21.32-4.84c20.37-7.13,33.52-21.53,37.76-42.64
		c4.7-23.37-3.21-42.65-22.22-57.16c-25.76-19.66-63.8-15.29-84.55,9.61c-16.39,19.67-17.81,48.02-3.12,68.37
		C118.43,210.73,135.5,219.04,156.56,219.3z"/>
	<path class="st0" d="M315,143.67c-1.73,0.15-3.47,0.43-5.2,0.43c-24.2,0.03-48.4-0.03-72.6,0.08c-3.06,0.01-4.53-0.72-5.45-3.9
		c-4.87-16.67-14.23-30.46-28.29-40.65c-16.32-11.83-34.63-17.24-54.9-15.06c-17.29,1.86-32.44,8.66-45.22,20.36
		c-10.99,10.07-18.36,22.49-22.5,36.85c-0.27,0.94-1.66,2.23-2.53,2.23c-25.2,0.11-50.39,0.08-75.59,0.05
		c-0.35,0-0.69-0.22-1.91-0.64c1.25-7.19,2.17-14.56,3.83-21.76c5-21.64,14.13-41.49,27.6-59.13c17.37-22.75,39.3-39.75,65.89-50.59
		c15.82-6.45,32.21-10.44,49.3-11.37c1.23-0.07,2.44-0.38,3.66-0.58c4.24,0,8.48,0,12.72,0c1.84,0.26,3.67,0.65,5.51,0.75
		c11.76,0.61,23.19,2.99,34.4,6.5c31.33,9.79,57.32,27.59,77.49,53.38c17.52,22.4,28.1,47.96,31.91,76.24
		c0.25,1.82,1.23,3.54,1.87,5.31C315,142.68,315,143.17,315,143.67z"/>
	<path class="st0" d="M315,142.18c-0.64-1.77-1.62-3.49-1.87-5.31c-3.82-28.28-14.39-53.84-31.91-76.24
		c-20.17-25.79-46.16-43.58-77.49-53.38c-11.2-3.5-22.63-5.89-34.4-6.5c-1.85-0.1-3.68-0.49-5.51-0.75C214.21,0,264.6,0,315,0
		C315,47.39,315,94.78,315,142.18z"/>
	<path class="st0" d="M313.05,176.92c-3.87,28.29-14.28,53.61-31.67,75.79c-29.43,37.53-68.89,58.59-115.86,60.78
		C83.23,317.31,12.57,258.31,2.06,176.7c1.21-0.07,2.39-0.2,3.57-0.2c23.45-0.01,46.9,0.04,70.35-0.07c3.2-0.02,4.26,0.91,5.07,4.19
		c3.69,14.89,11.44,27.5,22.93,37.7c20.9,18.54,45.25,24.24,72.05,17.57c29.64-7.38,47.97-26.96,56.5-55.99
		c0.57-1.95,0.93-3.44,3.48-3.43c24.95,0.07,49.89,0.05,74.84,0.08C311.32,176.54,311.8,176.7,313.05,176.92z"/>
	<path class="st0" d="M156.56,219.3c-21.06-0.26-38.13-8.57-50.52-25.73c-14.69-20.35-13.27-48.7,3.12-68.37
		c20.75-24.9,58.79-29.27,84.55-9.61c19.01,14.5,26.92,33.79,22.22,57.16c-4.24,21.1-17.39,35.51-37.76,42.64
		c-6.84,2.39-14.2,3.27-21.32,4.84C156.75,219.91,156.66,219.6,156.56,219.3z"/>
</g>
</svg>
